<?xml version="1.0" encoding="UTF-8"?><svg id="_イヤー_2" xmlns="http://www.w3.org/2000/svg" xmlns:xlink="http://www.w3.org/1999/xlink" viewBox="0 0 3016.04 333.67"><defs><style>.cls-1{fill:url(#_称未設定グラデーション_23);}</style><linearGradient id="_称未設定グラデーション_23" x1="368.24" y1="869.78" x2="2710.76" y2="-482.67" gradientTransform="matrix(1, 0, 0, 1, 0, 0)" gradientUnits="userSpaceOnUse"><stop offset="0" stop-color="#7dc2ff"/><stop offset=".25" stop-color="#7ebdfe"/><stop offset=".51" stop-color="#82b1fd"/><stop offset=".73" stop-color="#89a1fb"/><stop offset="1" stop-color="#9681ff"/></linearGradient></defs><g id="_イヤー_1-2"><path class="cls-1" d="M476.07,282.13h226.37v49.44h-226.37v-49.44Zm226.37-203.89v203.89h49.44V78.24h-49.44ZM769.79,2.1h-35.82V37.53h35.82V2.1Zm67.57,.53h-35.82V37.53h35.82V2.64ZM476.07,186.32h74.57v-44.45h-74.57v44.45Zm41.29-82.81h74.57V59.07h-74.57v44.45ZM1212.13,36.76h-310.11v44.53h310.11V36.76Zm-38.32,0V192.12h49.44V36.76h-49.44Zm-44.45,199.44h93.88v-44.45h-93.88v44.45Zm-50.07,0v95.37h49.44v-95.37h-49.44Zm-44.45,2.64h44.45v-44.45h-44.45v44.45Zm-44.45-46.72h44.45v-44.45h-44.45v44.45ZM284.67,43.03H82.32v44.53h202.35V43.03Zm82.42,81.73H0v49.44H367.08v-49.44Zm-158.82,151.1v-105.93h-49.44v105.93h49.44Zm-154.37,49.44h104.93v-49.44H53.89v49.44ZM320.49,8.37h-35.82V43.03h35.82V8.37Zm67.57,.52h-35.82V43.03h35.82V8.9ZM1527.21,44.56v32.12h145.27V333.67h-330.95V76.68h145.27V44.56h-145.27V0h330.95V44.56h-145.27Zm-78.49,73.75h-65.81v173.73h65.81V118.31Zm116.57,173.73h65.81V118.31h-65.81v173.73Zm-41.59-33.21h-33.21v33.21h33.21v-33.21Zm0-70.26h-33.21v33.21h33.21v-33.21Zm0-70.26h-33.21v33.21h33.21v-33.21Zm362.38-43.33v-31.4h-32.28V1.74h-41.48V43.58h-33.21v31.4h33.21v107.07h-33.21v42.53h33.21v108.11h41.48V183.07h32.28v-33.21h-32.28V74.98h32.28Zm180.95,0v74.88h42.01v31.4h-42.01v43.32h42.01v31.4h-42.01v43.32h-31.4v-43.32h-43.93v43.32h42.47v31.4h-116.34v-31.4h42.47v-43.32h-42.47v-31.4h42.47v-43.32h-42.47v-31.4h42.47V74.98h-42.47v-31.4h75.17V.99h41.48V43.58h74.56v31.4h-42.01Zm-31.4,106.28h-43.93v43.32h43.93v-43.32Zm0-106.28h-43.93v74.88h43.93V74.98Zm32.85,255.71h40.56v-31.4h-40.56v31.4ZM2537.04,1.9V331.78h-321.56V1.9h321.56Zm-42.05,41.62h-237.45v246.65h237.45V43.51Zm-21.82,32.91h-43.43v107.31h43.43V76.42Zm0,138.54h-43.43v43.43h43.43v-43.43Zm-75.9,0h-116.07v43.43h116.07v-43.43Zm-72.64-138.54h-43.43v43.43h43.43v-43.43Zm72.64,0h-43.43v43.43h43.43v-43.43Zm0,63.87h-43.43v43.43h43.43v-43.43Zm32.29,43.43h-32.29v31.23h32.29v-31.23Zm341.69,74.14v32.76h31.56v40.88h-158.4v-40.88h31.8v-32.76h-33.21v-33.21h33.21v33.12h31.45V108.59h-64.04v-31.98h31.86v-31.98h31.98V.77h32.35V44.63h33.21v31.98h29.81v31.98h-63v42.61h32.69v33.21h-32.69v73.36h31.45v-33.12h33.21v33.21h-33.21Zm-63.81-181.25h32.35v-31.9h-32.35v31.9Zm0,74.59h-31.98v31.98h31.98v-31.98ZM2909.67,2.18V183.19h-84.89V2.18h84.89Zm-26.27,106.41h-32.35v43.95h32.35v-43.95Zm0-74.69h-32.35v43.95h32.35V33.9Zm79.59,11.9V2.18h-30.89V76.61h9.33v.07h74.43v-30.89h-52.88Zm52.88,105.41v-42.61h-83.76v42.61h83.76Zm.17,140.82v40.88h-191.08v-40.88h.09v-1.39h31.55v-64.58h127.81v64.58h31.55v1.39h.09Zm-105.48-34.27h-31.94v43.43h31.94v-43.43Zm53.11,0h-31.94v43.43h31.94v-43.43Z"/></g></svg>