<svg xmlns="http://www.w3.org/2000/svg" xmlns:xlink="http://www.w3.org/1999/xlink" width="225" height="225" viewBox="0 0 225 225">
  <defs>
    <linearGradient id="linear-gradient" x1="0.5" x2="0.5" y2="1" gradientUnits="objectBoundingBox">
      <stop offset="0" stop-color="#b0b7fc"/>
      <stop offset="1" stop-color="#d9ddff"/>
    </linearGradient>
    <clipPath id="clip-path">
      <rect id="長方形_1596" data-name="長方形 1596" width="225" height="225" transform="translate(71 141)" fill="#383838"/>
    </clipPath>
    <clipPath id="clip-path-2">
      <rect id="長方形_1597" data-name="長方形 1597" width="225" height="225"/>
    </clipPath>
    <clipPath id="clip-path-3">
      <rect id="長方形_1577" data-name="長方形 1577" width="219.753" height="210.934" fill="none"/>
    </clipPath>
    <clipPath id="clip-path-4">
      <path id="パス_1059" data-name="パス 1059" d="M136.634,27.263a7.183,7.183,0,0,0-7,6.382L115.769,177.926a5.7,5.7,0,0,0,5.769,6.383h81.247a7.183,7.183,0,0,0,7-6.383L223.65,33.645a5.7,5.7,0,0,0-5.769-6.382Z" transform="translate(-115.739 -27.263)" fill="url(#linear-gradient)"/>
    </clipPath>
    <linearGradient id="linear-gradient-2" x1="-0.337" y1="1.174" x2="-0.335" y2="1.174" xlink:href="#linear-gradient"/>
    <clipPath id="clip-path-6">
      <path id="パス_1061" data-name="パス 1061" d="M136.18,54.159a2.83,2.83,0,0,0-.918,1.785l-4.29,47.629a2.285,2.285,0,0,0,2.335,2.518l79.563.071a2.832,2.832,0,0,0,2.788-2.514l4.29-47.629a2.284,2.284,0,0,0-2.336-2.519L138.05,53.43a2.832,2.832,0,0,0-1.87.729" transform="translate(-130.96 -53.43)" fill="none"/>
    </clipPath>
    <linearGradient id="linear-gradient-3" x1="-0.729" y1="3.182" x2="-0.726" y2="3.182" xlink:href="#linear-gradient"/>
    <clipPath id="clip-path-7">
      <path id="パス_1062" data-name="パス 1062" d="M254.495,163.133H220.866a2.184,2.184,0,0,0-2.128,1.941l-4.083,42.475a1.733,1.733,0,0,0,1.755,1.941h33.628a2.184,2.184,0,0,0,2.128-1.941l4.083-42.477a1.734,1.734,0,0,0-1.719-1.941h-.036" transform="translate(-214.643 -163.133)" fill="none"/>
    </clipPath>
    <linearGradient id="linear-gradient-4" x1="-2.35" y1="2.498" x2="-2.344" y2="2.498" xlink:href="#linear-gradient"/>
    <clipPath id="clip-path-9">
      <rect id="長方形_1582" data-name="長方形 1582" width="15.872" height="1.574" fill="none"/>
    </clipPath>
    <clipPath id="clip-path-11">
      <path id="パス_1068" data-name="パス 1068" d="M210.1,257.813H135.139a2.071,2.071,0,0,0-2.016,1.84l-2.237,23.268a1.643,1.643,0,0,0,1.663,1.839h74.956a2.07,2.07,0,0,0,2.016-1.84l2.236-23.268a1.642,1.642,0,0,0-1.63-1.841h-.033" transform="translate(-130.874 -257.812)" fill="none"/>
    </clipPath>
    <linearGradient id="linear-gradient-5" x1="-0.835" y1="2.572" x2="-0.832" y2="2.572" xlink:href="#linear-gradient"/>
    <clipPath id="clip-path-13">
      <rect id="長方形_1586" data-name="長方形 1586" width="32.083" height="3.181" fill="none"/>
    </clipPath>
    <clipPath id="clip-path-14">
      <path id="パス_1083" data-name="パス 1083" d="M370.311,126.609a21.712,21.712,0,0,0,3.536-5.021l-15.511-5.9Z" transform="translate(-358.337 -115.688)" fill="none"/>
    </clipPath>
    <linearGradient id="linear-gradient-6" x1="-11.539" y1="12.482" x2="-11.523" y2="12.482" xlink:href="#linear-gradient"/>
    <clipPath id="clip-path-15">
      <rect id="長方形_1592" data-name="長方形 1592" width="219.753" height="210.934" fill="none" stroke="rgba(0,0,0,0)" stroke-width="0.5"/>
    </clipPath>
    <clipPath id="clip-path-16">
      <rect id="長方形_1589" data-name="長方形 1589" width="43.993" height="3.155" fill="none"/>
    </clipPath>
    <clipPath id="clip-path-17">
      <rect id="長方形_1590" data-name="長方形 1590" width="51.14" height="28.675" fill="none"/>
    </clipPath>
    <clipPath id="clip-path-18">
      <rect id="長方形_1591" data-name="長方形 1591" width="44.995" height="25.229" fill="none"/>
    </clipPath>
  </defs>
  <g id="マスクグループ_2" data-name="マスクグループ 2" transform="translate(-71 -141)" clip-path="url(#clip-path)">
    <g id="アートボード_2" data-name="アートボード – 2" transform="translate(71 141)" clip-path="url(#clip-path-2)">
      <rect id="長方形_1594" data-name="長方形 1594" width="225" height="225" fill="none"/>
      <g id="グループ_2000" data-name="グループ 2000" transform="translate(2.5 7.033)">
        <g id="グループ_1957" data-name="グループ 1957">
          <g id="グループ_1956" data-name="グループ 1956" clip-path="url(#clip-path-3)">
            <path id="パス_1055" data-name="パス 1055" d="M394.7,183.719a3.322,3.322,0,1,0-3.321-3.322,3.322,3.322,0,0,0,3.321,3.322" transform="translate(-185.548 -83.95)" fill="#5661ae"/>
            <path id="パス_1056" data-name="パス 1056" d="M351.765,204.934a2.478,2.478,0,1,0-2.478-2.478,2.478,2.478,0,0,0,2.478,2.478" transform="translate(-165.594 -94.808)" fill="#6269b2"/>
            <path id="パス_1057" data-name="パス 1057" d="M160.361,58.257a2.478,2.478,0,1,0-2.478-2.478,2.478,2.478,0,0,0,2.478,2.478" transform="translate(-74.851 -25.27)" fill="#969ffb"/>
            <path id="パス_1058" data-name="パス 1058" d="M213.673,184.309H132.426a5.7,5.7,0,0,1-5.769-6.383L140.526,33.646a7.182,7.182,0,0,1,7-6.382h81.247a5.7,5.7,0,0,1,5.768,6.382L220.669,177.927a7.182,7.182,0,0,1-7,6.383" transform="translate(-60.033 -12.925)" fill="#969ffb"/>
          </g>
        </g>
        <g id="グループ_1959" data-name="グループ 1959" transform="translate(60.868 14.337)">
          <g id="グループ_1958" data-name="グループ 1958" clip-path="url(#clip-path-4)">
            <rect id="長方形_1578" data-name="長方形 1578" width="137.246" height="175.323" transform="matrix(0.981, -0.196, 0.196, 0.981, -30.448, 6.014)" fill="url(#linear-gradient-2)"/>
          </g>
        </g>
        <g id="グループ_1961" data-name="グループ 1961">
          <g id="グループ_1960" data-name="グループ 1960" clip-path="url(#clip-path-3)">
            <path id="パス_1060" data-name="パス 1060" d="M203.7,183.837H129.529a5.28,5.28,0,0,1-5.346-5.915L137.219,42.3a6.656,6.656,0,0,1,6.483-5.915H217.87a5.28,5.28,0,0,1,5.346,5.914L210.179,177.922a6.656,6.656,0,0,1-6.484,5.914" transform="translate(-58.861 -17.249)" fill="#fff"/>
          </g>
        </g>
        <g id="グループ_1963" data-name="グループ 1963" transform="translate(68.873 28.099)">
          <g id="グループ_1962" data-name="グループ 1962" clip-path="url(#clip-path-6)">
            <rect id="長方形_1580" data-name="長方形 1580" width="92.244" height="58.335" transform="translate(-3.395 0.216) rotate(-3.669)" fill="url(#linear-gradient-3)"/>
          </g>
        </g>
        <g id="グループ_1965" data-name="グループ 1965" transform="translate(112.882 85.793)">
          <g id="グループ_1964" data-name="グループ 1964" clip-path="url(#clip-path-7)">
            <rect id="長方形_1581" data-name="長方形 1581" width="46.912" height="51.024" transform="matrix(0.993, -0.12, 0.12, 0.993, -5.536, 0.666)" fill="url(#linear-gradient-4)"/>
          </g>
        </g>
        <g id="グループ_1973" data-name="グループ 1973">
          <g id="グループ_1972" data-name="グループ 1972" clip-path="url(#clip-path-3)">
            <path id="パス_1063" data-name="パス 1063" d="M253.154,192.954c3.792-3.615,4.205-9.337.922-12.782s-9.02-3.307-12.811.307-4.205,9.337-.921,12.782S249.363,196.569,253.154,192.954Z" transform="translate(-112.894 -84.234)" fill="none" stroke="#98a1fb" stroke-miterlimit="10" stroke-width="4.5"/>
            <path id="パス_1064" data-name="パス 1064" d="M242.946,195.072a8.071,8.071,0,0,1-4.778-8.356,10.174,10.174,0,0,1,9.91-9.041" transform="translate(-112.894 -84.234)" fill="none" stroke="#fff" stroke-linecap="round" stroke-miterlimit="10" stroke-width="4.5"/>
            <line id="線_92" data-name="線 92" x2="6.918" transform="translate(129.306 118.609)" fill="none" stroke="#fff" stroke-linecap="round" stroke-miterlimit="10" stroke-width="1.5"/>
            <line id="線_93" data-name="線 93" x2="6.918" transform="translate(128.553 126.445)" fill="none" stroke="#fff" stroke-linecap="round" stroke-miterlimit="10" stroke-width="1.5"/>
            <g id="グループ_1968" data-name="グループ 1968" transform="translate(124.457 121.697)" opacity="0.4" style="isolation: isolate">
              <g id="グループ_1967" data-name="グループ 1967">
                <g id="グループ_1966" data-name="グループ 1966" clip-path="url(#clip-path-9)">
                  <line id="線_94" data-name="線 94" x2="14.298" transform="translate(0.787 0.786)" fill="none" stroke="#fff" stroke-linecap="round" stroke-miterlimit="10" stroke-width="2.992"/>
                </g>
              </g>
            </g>
            <path id="パス_1065" data-name="パス 1065" d="M171.84,209.492H138.212a1.734,1.734,0,0,1-1.755-1.941l4.083-42.476a2.184,2.184,0,0,1,2.128-1.941H176.3a1.732,1.732,0,0,1,1.755,1.941l-4.084,42.475a2.185,2.185,0,0,1-2.128,1.941" transform="translate(-64.687 -77.34)" fill="#6269b2"/>
            <path id="パス_1066" data-name="パス 1066" d="M174.956,192.954c3.792-3.615,4.205-9.337.921-12.782s-9.02-3.307-12.811.307-4.205,9.337-.921,12.782S171.164,196.569,174.956,192.954Z" transform="translate(-75.821 -84.234)" fill="none" stroke="#98a1fb" stroke-miterlimit="10" stroke-width="4.5"/>
            <path id="パス_1067" data-name="パス 1067" d="M178.05,186.717a10.174,10.174,0,0,1-9.91,9.041,8.071,8.071,0,0,1-8.172-9.041,10.174,10.174,0,0,1,9.91-9.041" transform="translate(-75.821 -84.234)" fill="none" stroke="#fff" stroke-linecap="round" stroke-miterlimit="10" stroke-width="4.5"/>
            <line id="線_95" data-name="線 95" x2="6.918" transform="translate(88.181 118.609)" fill="none" stroke="#fff" stroke-linecap="round" stroke-miterlimit="10" stroke-width="1.5"/>
            <path id="パス_1341" data-name="パス 1341" d="M0,0H6.918" transform="translate(87.428 126.445)" fill="none" stroke="#fff" stroke-linecap="round" stroke-width="1.5"/>
            <g id="グループ_1971" data-name="グループ 1971" transform="translate(83.332 121.697)" opacity="0.4" style="isolation: isolate">
              <g id="グループ_1970" data-name="グループ 1970">
                <g id="グループ_1969" data-name="グループ 1969" clip-path="url(#clip-path-9)">
                  <line id="線_97" data-name="線 97" x2="14.298" transform="translate(0.787 0.786)" fill="none" stroke="#fff" stroke-linecap="round" stroke-miterlimit="10" stroke-width="2.992"/>
                </g>
              </g>
            </g>
          </g>
        </g>
        <g id="グループ_1975" data-name="グループ 1975" transform="translate(68.827 135.585)">
          <g id="グループ_1974" data-name="グループ 1974" clip-path="url(#clip-path-11)">
            <rect id="長方形_1585" data-name="長方形 1585" width="81.849" height="29.856" transform="matrix(0.999, -0.036, 0.036, 0.999, -0.988, 0.035)" fill="url(#linear-gradient-5)"/>
          </g>
        </g>
        <g id="グループ_1980" data-name="グループ 1980">
          <g id="グループ_1979" data-name="グループ 1979" clip-path="url(#clip-path-3)">
            <line id="線_98" data-name="線 98" y1="11" x2="1.058" transform="translate(75.723 146.139)" fill="none" stroke="#fff" stroke-linecap="round" stroke-miterlimit="10" stroke-width="5.845"/>
            <line id="線_99" data-name="線 99" x1="0.74" y2="7.706" transform="translate(82.74 149.433)" fill="none" stroke="#fff" stroke-linecap="round" stroke-miterlimit="10" stroke-width="5.845"/>
            <line id="線_100" data-name="線 100" x1="0.488" y2="5.074" transform="translate(89.758 152.064)" fill="none" stroke="#fff" stroke-linecap="round" stroke-miterlimit="10" stroke-width="5.845"/>
            <line id="線_101" data-name="線 101" x1="1.332" y2="13.858" transform="translate(96.775 143.28)" fill="none" stroke="#fff" stroke-linecap="round" stroke-miterlimit="10" stroke-width="3.5"/>
            <line id="線_102" data-name="線 102" x1="0.488" y2="5.074" transform="translate(103.794 152.064)" fill="none" stroke="#fff" stroke-linecap="round" stroke-miterlimit="10" stroke-width="3.5"/>
            <line id="線_103" data-name="線 103" x1="1.273" y2="13.247" transform="translate(110.811 143.892)" fill="none" stroke="#fff" stroke-linecap="round" stroke-miterlimit="10" stroke-width="3.5"/>
            <line id="線_104" data-name="線 104" x1="0.529" y2="5.5" transform="translate(117.829 151.639)" fill="none" stroke="#fff" stroke-linecap="round" stroke-miterlimit="10" stroke-width="3.5"/>
            <line id="線_105" data-name="線 105" x1="0.282" y2="2.93" transform="translate(124.846 154.208)" fill="none" stroke="#fff" stroke-linecap="round" stroke-miterlimit="10" stroke-width="3.5"/>
            <line id="線_106" data-name="線 106" x1="1.058" y2="11" transform="translate(131.865 146.139)" fill="none" stroke="#fff" stroke-linecap="round" stroke-miterlimit="10" stroke-width="3.5"/>
            <line id="線_107" data-name="線 107" x1="1.46" y2="15.188" transform="translate(138.882 141.95)" fill="none" stroke="#fff" stroke-linecap="round" stroke-miterlimit="10" stroke-width="3.5"/>
            <path id="パス_1069" data-name="パス 1069" d="M138.868,139.811l4.212,6.6a1.34,1.34,0,0,1-.4,1.844L142,148.7a5.609,5.609,0,0,1-7.314-1.05l-5.59-6.519Z" transform="translate(-61.204 -66.284)" fill="#ffbda7"/>
            <path id="パス_1070" data-name="パス 1070" d="M141.566,144.64s1.56,5.356,4.693,7.074a13.7,13.7,0,0,0,2.334-1.17l-3.514-5.9" transform="translate(-67.115 -68.573)" fill="#ffbda7"/>
            <path id="パス_1071" data-name="パス 1071" d="M4.532,145.457l16.546-7.93a9.242,9.242,0,0,0,3.8-3.376l15.985-25.145a9.239,9.239,0,0,1,4.142-3.529L68.033,95.56,63.1,132.833l-.087,1.377S56.927,149.981,42,155.71L18.141,170.3Z" transform="translate(-2.148 -45.304)" fill="#ffbda7"/>
            <path id="パス_1072" data-name="パス 1072" d="M33.489,173.7s7.827,19.536,19.464,19.057l-7.43,4.546s-25.218-4.678-15.778-21.671Z" transform="translate(-13.099 -82.348)" fill="#ffbda7"/>
            <path id="パス_1073" data-name="パス 1073" d="M111.536,108.676s-8.14,4.933-7.708,16.375L113.6,121.4Z" transform="translate(-49.216 -51.522)" fill="#ffbda7"/>
            <path id="パス_1074" data-name="パス 1074" d="M148.574,139.811l4.212,6.6a1.34,1.34,0,0,1-.4,1.844l-.681.443a5.609,5.609,0,0,1-7.314-1.05l-5.591-6.522Z" transform="translate(-65.805 -66.284)" fill="#ffbda7"/>
            <path id="パス_1075" data-name="パス 1075" d="M201.959,97.223,122.4,97.15a2.285,2.285,0,0,1-2.336-2.519L124.35,47a2.833,2.833,0,0,1,2.788-2.514l79.562.071a2.285,2.285,0,0,1,2.335,2.518l-4.289,47.629a2.833,2.833,0,0,1-2.789,2.515" transform="translate(-56.914 -21.092)" fill="#969ffb"/>
            <path id="パス_1076" data-name="パス 1076" d="M134.529,92.47s7.142-1.445,9.064,1.907,3.579,9.645,8.693,8.833,9.029-17.266,14.056-17.116,3.255,10.926,8.727,11.077,4.5-6.02,8.146-5.85c4.424.209,2.775,12.993,8.544,13.144s6.71-16.888,15.43-16.589" transform="translate(-63.779 -40.817)" fill="none" stroke="#fff" stroke-linecap="round" stroke-miterlimit="10" stroke-width="2.5"/>
            <line id="線_108" data-name="線 108" x2="13.998" y2="0.013" transform="translate(74.812 31.375)" fill="none" stroke="#fff" stroke-linecap="round" stroke-miterlimit="10" stroke-width="3.5"/>
            <g id="グループ_1978" data-name="グループ 1978" transform="translate(72.657 36.214)" opacity="0.4" style="isolation: isolate">
              <g id="グループ_1977" data-name="グループ 1977">
                <g id="グループ_1976" data-name="グループ 1976" clip-path="url(#clip-path-13)">
                  <line id="線_109" data-name="線 109" x2="28.927" y2="0.026" transform="translate(1.577 1.577)" fill="none" stroke="#fff" stroke-linecap="round" stroke-miterlimit="10" stroke-width="5.999"/>
                </g>
              </g>
            </g>
            <path id="パス_1077" data-name="パス 1077" d="M89.654,132.253l10.206-4.5,10.438-7.125c2.745-1.873,8.478-2.717,10.541-.113,2.1,2.65-.259,7.89-2.8,10.114l-9.646,8.423-5.016,6.208Z" transform="translate(-42.504 -56.359)" fill="#ffbda7"/>
            <path id="パス_1079" data-name="パス 1079" d="M19.559,174.111s-1.978,14.145,15.234,22.245c0,0-12.365,11.342-17.132,13.25S-5.016,192.024,1.354,180.962c1.786-3.1,18.2-6.85,18.2-6.85" transform="translate(0 -82.545)" fill="#5661ae"/>
            <path id="パス_1080" data-name="パス 1080" d="M151.528,145.246s-6.709.137-9.044,1.359l-1.686-1.965h10.342Z" transform="translate(-66.752 -68.573)" fill="#ffbda7"/>
            <path id="パス_1081" data-name="パス 1081" d="M343.8,146.107H296.1a5.859,5.859,0,0,1-5.93-6.506l6.4-72.279a7.252,7.252,0,0,1,7.08-6.506h47.7a5.859,5.859,0,0,1,5.93,6.506l-6.4,72.278a7.253,7.253,0,0,1-7.082,6.507" transform="translate(-137.554 -28.833)" fill="#6269b2"/>
            <path id="パス_1082" data-name="パス 1082" d="M352,110.813c7.555-7.226,8.315-18.688,1.7-25.6s-18.1-6.66-25.65.566-8.315,18.688-1.7,25.6,18.1,6.66,25.65-.566" transform="translate(-152.585 -38.016)" fill="#fff"/>
          </g>
        </g>
        <g id="グループ_1982" data-name="グループ 1982" transform="translate(188.452 60.841)">
          <g id="グループ_1981" data-name="グループ 1981" clip-path="url(#clip-path-14)">
            <rect id="長方形_1588" data-name="長方形 1588" width="16.298" height="12.071" transform="matrix(0.997, -0.076, 0.076, 0.997, -0.829, 0.064)" fill="url(#linear-gradient-6)"/>
          </g>
        </g>
        <g id="グループ_1993" data-name="グループ 1993">
          <g id="グループ_1992" data-name="グループ 1992" clip-path="url(#clip-path-15)">
            <path id="パス_1084" data-name="パス 1084" d="M358.31,75.8l-1.7,19.216a1.8,1.8,0,0,0,.9,1.763l16.247,9.045s9.65-26.915-15.45-30.024" transform="translate(-169.06 -35.935)" fill="#969ffb"/>
            <line id="線_110" data-name="線 110" x2="19.761" transform="translate(163.819 91.692)" fill="none" stroke="#fff" stroke-linecap="round" stroke-miterlimit="10" stroke-width="3.5"/>
            <line id="線_111" data-name="線 111" x2="19.761" transform="translate(162.372 108.031)" fill="none" stroke="#fff" stroke-linecap="round" stroke-miterlimit="10" stroke-width="3.5"/>
            <g id="グループ_1985" data-name="グループ 1985" transform="translate(161.527 98.191)" opacity="0.4" style="isolation: isolate">
              <g id="グループ_1984" data-name="グループ 1984">
                <g id="グループ_1983" data-name="グループ 1983" clip-path="url(#clip-path-16)">
                  <line id="線_112" data-name="線 112" x2="40.838" transform="translate(1.577 1.578)" fill="none" stroke="#fff" stroke-linecap="round" stroke-miterlimit="10" stroke-width="6"/>
                </g>
              </g>
            </g>
            <path id="パス_1085" data-name="パス 1085" d="M330.53,245.65s6.37-1.7,9.76,1.95c0,0,6.094-1.107,8.572,2.283,0,0,5.4.313,6.967,2.516a7.433,7.433,0,0,1,5.888,4.608c1.478,3.482.225,23.611-1.244,30.825a10.245,10.245,0,0,0,.364,5.413l3.735,10.733-25.842,10.8-6.135-16s-7.468-12-8.535-14.135.741-19.839-2.9-30.9Z" transform="translate(-152.258 -116.274)" fill="#ffbda7"/>
            <path id="パス_1086" data-name="パス 1086" d="M348.569,350.74l-.746-1.944s13.409-.857,25.655-12.284l1.171,3.366a16.068,16.068,0,0,1-8.4,10.229c-6.887,3.276-17.682.633-17.682.633" transform="translate(-164.9 -159.538)" fill="#ffbda7"/>
            <path id="パス_1087" data-name="パス 1087" d="M349.231,353.774s16.232,1.478,26.081-10.862c0,0,3.637,1.906,9.22,15.865,1.715,4.287-26.923,19.55-31.553,13.206a45,45,0,0,1-3.747-18.208" transform="translate(-165.562 -162.572)" fill="#5661ae"/>
            <path id="パス_1088" data-name="パス 1088" d="M301.009,273.03S300.45,276,297.8,276c-1.727,0-9.213-2.262-14.21-3.834a6.957,6.957,0,0,0-7.6,2.392l-.3.395a1.824,1.824,0,0,0,.4,2.61c4.23,2.953,15.653,10.969,17.114,12.43,1.8,1.8,11.81,11.878,11.81,11.878Z" transform="translate(-130.52 -128.88)" fill="#ffbda7"/>
            <path id="パス_1089" data-name="パス 1089" d="M318.892,268.439s5.411,7.324,4.61,8.927-9.191-3.3-9.191-3.3,6.771,1.741,4.581-5.629" transform="translate(-149.012 -127.265)" fill="#ffbda7"/>
            <path id="パス_1090" data-name="パス 1090" d="M312.613,227.8l-9.105-27.65a7.458,7.458,0,0,1,4.969-9.484,3.35,3.35,0,0,1,4.023,1.876l12.773,29.361Z" transform="translate(-143.713 -90.329)" fill="#ffbda7"/>
            <path id="パス_1091" data-name="パス 1091" d="M313.65,238.6a3.6,3.6,0,0,0,2.36,1.657" transform="translate(-148.699 -113.119)" fill="none" stroke="#f0997a" stroke-linecap="round" stroke-width="1.5"/>
            <line id="線_113" data-name="線 113" x2="3.139" y2="6.915" transform="translate(180.53 129.215)" fill="none" stroke="#f0997a" stroke-linecap="round" stroke-width="1.5"/>
            <path id="パス_1093" data-name="パス 1093" d="M357.776,249.988a13.62,13.62,0,0,1,2.45,7.8" transform="translate(-169.618 -118.517)" fill="none" stroke="#f0997a" stroke-linecap="round" stroke-width="1.5"/>
            <path id="パス_1094" data-name="パス 1094" d="M374.12,254.307a22.548,22.548,0,0,1,1.711,6.49" transform="translate(-177.367 -120.564)" fill="none" stroke="#f0997a" stroke-linecap="round" stroke-width="1.5"/>
            <path id="パス_1095" data-name="パス 1095" d="M387.5,259.255a10.183,10.183,0,0,1,.7,4.83" transform="translate(-183.712 -122.91)" fill="none" stroke="#f0997a" stroke-linecap="round" stroke-width="1.5"/>
            <path id="パス_1097" data-name="パス 1097" d="M121.063,287.747H64.1a1.642,1.642,0,0,1-1.663-1.84l2.236-23.268a2.07,2.07,0,0,1,2.017-1.84h56.96a1.642,1.642,0,0,1,1.663,1.84l-2.237,23.268a2.071,2.071,0,0,1-2.017,1.84" transform="translate(-29.597 -123.643)" fill="#6269b2"/>
            <line id="線_114" data-name="線 114" x2="35.153" transform="translate(39.854 143.225)" fill="none" stroke="#98a1fb" stroke-linecap="round" stroke-miterlimit="10" stroke-width="3.5"/>
            <line id="線_115" data-name="線 115" x2="24.427" transform="translate(39.854 143.225)" fill="none" stroke="#fff" stroke-linecap="round" stroke-miterlimit="10" stroke-width="3.5"/>
            <line id="線_116" data-name="線 116" x2="35.153" transform="translate(39.328 150.63)" fill="none" stroke="#98a1fb" stroke-linecap="round" stroke-miterlimit="10" stroke-width="3.5"/>
            <line id="線_117" data-name="線 117" x2="14.604" transform="translate(39.328 150.63)" fill="none" stroke="#fff" stroke-linecap="round" stroke-miterlimit="10" stroke-width="3.5"/>
            <line id="線_118" data-name="線 118" x2="35.153" transform="translate(38.179 158.036)" fill="none" stroke="#98a1fb" stroke-linecap="round" stroke-miterlimit="10" stroke-width="3.5"/>
            <line id="線_119" data-name="線 119" x2="8.931" transform="translate(38.179 158.036)" fill="none" stroke="#fff" stroke-linecap="round" stroke-miterlimit="10" stroke-width="3.5"/>
            <path id="パス_1098" data-name="パス 1098" d="M164.39,272.544a2.1,2.1,0,1,0-2.1-2.1,2.1,2.1,0,0,0,2.1,2.1" transform="translate(-76.94 -127.219)" fill="#fff"/>
            <path id="パス_1099" data-name="パス 1099" d="M163.1,286.01a2.1,2.1,0,1,0-2.1-2.1,2.1,2.1,0,0,0,2.1,2.1" transform="translate(-76.326 -133.604)" fill="#fff"/>
            <path id="パス_1100" data-name="パス 1100" d="M161.65,300.709a2.1,2.1,0,1,0-2.1-2.1,2.1,2.1,0,0,0,2.1,2.1" transform="translate(-75.641 -140.572)" fill="#fff"/>
            <g id="グループ_1988" data-name="グループ 1988" transform="translate(163.811)" opacity="0.9">
              <g id="グループ_1987" data-name="グループ 1987">
                <g id="グループ_1986" data-name="グループ 1986" clip-path="url(#clip-path-17)">
                  <path id="パス_1101" data-name="パス 1101" d="M356.741,0H317.366a5.883,5.883,0,0,0-5.883,5.882V18.065a5.883,5.883,0,0,0,5.883,5.883h13.979l4.123,4.125a2.06,2.06,0,0,0,2.914,0l4.123-4.124h14.237a5.882,5.882,0,0,0,5.882-5.883V5.883A5.882,5.882,0,0,0,356.74,0" transform="translate(-311.483)" fill="#ebebeb"/>
                </g>
              </g>
            </g>
            <path id="パス_1102" data-name="パス 1102" d="M334.18,14.739a2.844,2.844,0,0,0-3.86,0l-.727.672-.728-.672a2.845,2.845,0,0,0-3.861,0,2.679,2.679,0,0,0,0,3.972l4.587,4.25,4.587-4.2a2.66,2.66,0,0,0,0-4.028" transform="translate(-153.664 -6.629)" fill="#636ab2"/>
            <path id="パス_1103" data-name="パス 1103" d="M352.9,18.66a1.65,1.65,0,0,1,.6-1.21,2.427,2.427,0,0,1,2.377-.227,1.419,1.419,0,0,1,.631.555,1.5,1.5,0,0,1,.218.8,1.39,1.39,0,0,1-.3.9,1.328,1.328,0,0,1-.773.487v.042a1.557,1.557,0,0,1,.865.53,1.592,1.592,0,0,1,.321,1.033,1.714,1.714,0,0,1-.221.865,1.5,1.5,0,0,1-.655.6,2.331,2.331,0,0,1-1.05.219,2.25,2.25,0,0,1-1.462-.462,1.818,1.818,0,0,1-.639-1.327h.738a1.264,1.264,0,0,0,.413.824,1.35,1.35,0,0,0,.942.319,1.2,1.2,0,0,0,.889-.3,1.08,1.08,0,0,0,.313-.8,1.01,1.01,0,0,0-.42-.908,2.339,2.339,0,0,0-1.27-.277h-.192v-.643h.2a2.309,2.309,0,0,0,1.168-.25.854.854,0,0,0,.394-.773.917.917,0,0,0-.294-.714,1.157,1.157,0,0,0-.823-.268,1.266,1.266,0,0,0-.841.268,1.077,1.077,0,0,0-.376.723Zm5.879,3.487-.939,2.26h-.513l.612-2.26ZM363.4,17.8h-2.95v1.916a1.358,1.358,0,0,1,.57-.437,1.9,1.9,0,0,1,.815-.177,1.984,1.984,0,0,1,1.133.294,1.582,1.582,0,0,1,.623.75,2.439,2.439,0,0,1,.192.966,2.482,2.482,0,0,1-.226,1.084,1.709,1.709,0,0,1-.7.756,2.2,2.2,0,0,1-1.15.277,2.166,2.166,0,0,1-1.428-.454,1.886,1.886,0,0,1-.663-1.21h.747a1.253,1.253,0,0,0,.463.75,1.42,1.42,0,0,0,.889.268,1.245,1.245,0,0,0,1-.395,1.6,1.6,0,0,0,.334-1.058,1.406,1.406,0,0,0-.334-1.008,1.292,1.292,0,0,0-.991-.362,1.413,1.413,0,0,0-.784.219,1.228,1.228,0,0,0-.478.579h-.719V17.122h3.65Zm1.312,4.8q1.065-.857,1.669-1.4a6.731,6.731,0,0,0,1.017-1.15,2.071,2.071,0,0,0,.421-1.184,1.27,1.27,0,0,0-.268-.857,1.036,1.036,0,0,0-.85-.319,1.128,1.128,0,0,0-.892.362,1.49,1.49,0,0,0-.336.95h-.739a2.026,2.026,0,0,1,.57-1.453,1.935,1.935,0,0,1,1.389-.513,1.9,1.9,0,0,1,1.367.479,1.717,1.717,0,0,1,.513,1.319,2.523,2.523,0,0,1-.418,1.361,6.076,6.076,0,0,1-.941,1.159q-.528.5-1.354,1.16h2.89v.639h-4.039Zm8.661-4.865-2.335,5.478h-.773l2.369-5.4h-3.242V17.15h3.981Z" transform="translate(-167.264 -8.066)" fill="#969ffb"/>
            <g id="グループ_2001" data-name="グループ 2001" transform="translate(39.673 166.169)">
              <g id="グループ_1991" data-name="グループ 1991" opacity="0.7" style="isolation: isolate">
                <g id="グループ_1990" data-name="グループ 1990">
                  <g id="グループ_1989" data-name="グループ 1989" clip-path="url(#clip-path-18)">
                    <path id="パス_1104" data-name="パス 1104" d="M85.9,341.194h34.644a5.176,5.176,0,0,0,5.176-5.175V325.3a5.176,5.176,0,0,0-5.176-5.176h-12.3l-3.629-3.629a1.812,1.812,0,0,0-2.562,0l-3.63,3.629H85.9a5.176,5.176,0,0,0-5.174,5.176v10.718a5.176,5.176,0,0,0,5.174,5.176" transform="translate(-80.727 -315.965)" fill="#969ffb"/>
                  </g>
                </g>
              </g>
              <path id="パス_1105" data-name="パス 1105" d="M115.75,341.107q.939-.754,1.471-1.234a6.033,6.033,0,0,0,.895-1.013,1.83,1.83,0,0,0,.369-1.043,1.115,1.115,0,0,0-.237-.754.91.91,0,0,0-.747-.281.991.991,0,0,0-.784.318,1.306,1.306,0,0,0-.3.835h-.65a1.778,1.778,0,0,1,.5-1.278,1.7,1.7,0,0,1,1.22-.45,1.678,1.678,0,0,1,1.2.421,1.511,1.511,0,0,1,.45,1.16,2.213,2.213,0,0,1-.369,1.2,5.273,5.273,0,0,1-.828,1.02q-.466.436-1.191,1.02h2.543v.561H115.75Zm4.171-.65v-.51l2.594-3.592h.806v3.519h.739v.584h-.739v1.19h-.665v-1.19Zm2.765-3.4-1.989,2.816h1.989Zm2.033.591a1.445,1.445,0,0,1,.525-1.065,2.134,2.134,0,0,1,2.092-.2,1.254,1.254,0,0,1,.554.488,1.308,1.308,0,0,1,.193.7,1.228,1.228,0,0,1-.266.791,1.163,1.163,0,0,1-.68.428v.037a1.364,1.364,0,0,1,.761.466,1.4,1.4,0,0,1,.281.909,1.522,1.522,0,0,1-.192.762,1.331,1.331,0,0,1-.577.524,2.046,2.046,0,0,1-.924.193,1.982,1.982,0,0,1-1.286-.407,1.6,1.6,0,0,1-.562-1.168h.65a1.116,1.116,0,0,0,.363.724,1.186,1.186,0,0,0,.828.281,1.062,1.062,0,0,0,.784-.267.95.95,0,0,0,.274-.7.886.886,0,0,0-.37-.8,2.05,2.05,0,0,0-1.117-.244h-.17v-.561h.177a2.026,2.026,0,0,0,1.027-.222.75.75,0,0,0,.348-.68.811.811,0,0,0-.259-.629,1.018,1.018,0,0,0-.724-.237,1.11,1.11,0,0,0-.739.237.96.96,0,0,0-.332.636Zm7.347-.074a.927.927,0,0,0-1.012-.82,1.087,1.087,0,0,0-.983.51,3.15,3.15,0,0,0-.318,1.663,1.247,1.247,0,0,1,.562-.6,1.794,1.794,0,0,1,.887-.222,1.6,1.6,0,0,1,1.213.473,1.8,1.8,0,0,1,.458,1.309,1.988,1.988,0,0,1-.2.9,1.465,1.465,0,0,1-.592.635,1.812,1.812,0,0,1-.953.237,1.868,1.868,0,0,1-1.191-.34,1.778,1.778,0,0,1-.6-.939,5.5,5.5,0,0,1-.17-1.479q0-2.713,1.893-2.713a1.514,1.514,0,0,1,1.626,1.383Zm-1.005,1.1a1.381,1.381,0,0,0-.6.133,1.063,1.063,0,0,0-.458.392,1.133,1.133,0,0,0-.17.636,1.3,1.3,0,0,0,.326.916,1.213,1.213,0,0,0,.931.35,1.081,1.081,0,0,0,.82-.318,1.21,1.21,0,0,0,.31-.872,1.291,1.291,0,0,0-.3-.9,1.1,1.1,0,0,0-.865-.332" transform="translate(-94.256 -323.777)" fill="#fff"/>
              <path id="パス_1106" data-name="パス 1106" d="M91.25,342.555h1.135a.8.8,0,0,0,.795-.795v-5.221a.8.8,0,0,0-.8-.795H91.25a.8.8,0,0,0-.8.794v5.222a.8.8,0,0,0,.795.794" transform="translate(-84.485 -323.605)" fill="#fff"/>
              <path id="パス_1107" data-name="パス 1107" d="M98.4,330.382c-.454,0-.681.227-.681,1.362,0,1.079-1.045,1.947-1.717,2.394v5.624a10.579,10.579,0,0,0,4.441.835h.726a1.813,1.813,0,0,0,1.789-1.508l.509-2.95a1.815,1.815,0,0,0-1.789-2.125H99.539a4.389,4.389,0,0,0,.34-1.816,1.667,1.667,0,0,0-1.476-1.816Z" transform="translate(-86.629 -321.534)" fill="#fff"/>
            </g>
          </g>
        </g>
        <rect id="長方形_1593" data-name="長方形 1593" width="219.753" height="210.934" fill="none"/>
      </g>
    </g>
  </g>
</svg>

